#!OML:ASF Y:\EmotionMaleHayes\Project 1\Capture day 1\Session 1\Male1.ASF
:FULLY-SPECIFIED
:DEGREES
902
root 9.24809 16.544 -7.42091 -175.635 185.188 -185.488
lowerback 15.0061 4.68853 1.77241
upperback 7.55271 6.34463 -0.274984
thorax -0.153622 3.20925 -2.19984
lowerneck -18.8606 0.923663 6.92049
upperneck 35.2021 -2.41117 3.32409
head 15.6358 0.427584 -0.232689
rclavicle 3.91606e-014 -1.86858e-014
rhumerus -14.0961 8.38142 -82.95
rradius 58.0788
rwrist -8.49531
rhand -15.214 -32.5289
rfingers 7.12502
rthumb 10.9583 -62.2229
lclavicle 3.91606e-014 -1.86858e-014
lhumerus -62.5978 25.0597 36.8087
lradius 12.6949
lwrist -61.1967
lhand 2.8616 -22.4291
lfingers 7.12502
lthumb 28.3283 5.44819
rfemur 16.6643 1.71905 17.309
rtibia 6.05677
rfoot -23.7063 -0.485521
rtoes -17.5792
lfemur -26.0843 10.3266 -3.43467
ltibia 24.1601
lfoot -1.52116 11.2197
ltoes -38.2827
903
root 9.29635 16.5313 -7.2909 -175.588 185.443 -185.11
lowerback 15.0908 4.70941 0.947666
upperback 7.67359 6.26019 -0.3761
thorax -0.153152 3.14628 -1.84103
lowerneck -18.8516 0.983786 6.7197
upperneck 35.2453 -2.15854 3.08075
head 15.6491 0.469874 -0.255639
rclavicle -6.54002e-014 -3.97569e-015
rhumerus -14.9234 8.55662 -83.5054
rradius 58.7228
rwrist -8.87569
rhand -15.4067 -31.9061
rfingers 7.12502
rthumb 10.7725 -61.6099
lclavicle -6.54002e-014 -3.97569e-015
lhumerus -63.2416 26.3176 35.0296
lradius 12.3768
lwrist -64.3198
lhand 2.88063 -22.0211
lfingers 7.12502
lthumb 28.3465 5.85316
rfemur 16.7559 2.55583 16.9294
rtibia 6.62461
rfoot -23.3289 0.232632
rtoes -4.48286
lfemur -25.9595 9.47478 -3.62514
ltibia 24.5862
lfoot -3.05588 11.5967
ltoes -24.8671
904
root 9.34194 16.5283 -7.16035 -175.537 185.647 -184.608
lowerback 15.1734 4.72586 0.072946
upperback 7.7715 6.16119 -0.583398
thorax -0.165537 3.07604 -1.56296
lowerneck -18.7662 1.03115 6.49856
upperneck 35.2999 -1.97946 3.02176
head 15.6552 0.504722 -0.209808
rclavicle 6.26172e-014 -2.54444e-014
rhumerus -15.9034 8.87876 -83.9903
rradius 59.4289
rwrist -9.2167
rhand -15.711 -31.2322
rfingers 7.12502
rthumb 10.4789 -60.951
lclavicle 6.26172e-014 -2.54444e-014
lhumerus -62.4212 25.7967 36.2721
lradius 12.2044
lwrist -64.7736
lhand 3.11371 -21.4185
lfingers 7.12502
lthumb 28.5692 6.41854
rfemur 16.724 2.91202 16.2531
rtibia 7.17618
rfoot -23.1927 -0.82312
rtoes -11.2412
lfemur -25.8491 8.59056 -4.08415
ltibia 25.1365
lfoot -4.72071 11.8254
ltoes -11.6934
905
root 9.39077 16.5332 -7.02874 -175.458 185.777 -184.134
lowerback 15.2999 4.71723 -0.597704
upperback 7.83425 6.05246 -0.89455
thorax -0.201715 3.00838 -1.50815
lowerneck -18.8214 1.09153 6.34029
upperneck 35.4007 -1.86281 3.07396
head 15.7204 0.541537 -0.137624
rclavicle -2.42517e-014 1.03368e-014
rhumerus -16.9526 8.94886 -84.3843
rradius 60.0869
rwrist -9.58067
rhand -15.6724 -30.6092
rfingers 7.12502
rthumb 10.5162 -60.3261
lclavicle -2.42517e-014 1.03368e-014
lhumerus -60.3659 23.5847 40.1021
lradius 12.3342
lwrist -62.6055
lhand 3.50174 -20.486
lfingers 7.12502
lthumb 28.9399 7.28807
rfemur 16.5901 3.11891 15.5635
rtibia 7.88722
rfoot -23.0906 -2.53385
rtoes -24.605
lfemur -26.1339 9.224 -5.32569
ltibia 26.2776
lfoot -3.22647 11.8297
ltoes -27.4567
906
root 9.43866 16.5469 -6.89929 -175.345 185.766 -183.797
lowerback 15.4431 4.66382 -1.19631
upperback 7.89561 5.89422 -1.13488
thorax -0.24737 2.91657 -1.41319
lowerneck -19.0103 1.18212 6.43236
upperneck 35.5438 -1.70489 2.85113
head 15.8329 0.592715 -0.217955
rclavicle 4.19436e-014 -2.54444e-014
rhumerus -18.1164 9.28303 -84.5988
rradius 60.8752
rwrist -10.0704
rhand -15.677 -30.1273
rfingers 7.12502
rthumb 10.5118 -59.8444
lclavicle 4.19436e-014 -2.54444e-014
lhumerus -59.6057 23.7295 40.5497
lradius 12.463
lwrist -64.2034
lhand 4.10612 -20.2666
lfingers 7.12502
lthumb 29.517 7.40708
rfemur 16.4 3.78913 15.2364
rtibia 8.88141
rfoot -22.2878 -1.11757
rtoes -6.13033
lfemur -26.0749 8.37671 -5.712
ltibia 26.885
lfoot -5.26334 12.1426
ltoes -15.6191
907
root 9.48754 16.5675 -6.77083 -175.201 185.674 -183.775
lowerback 15.5913 4.5947 -1.46047
upperback 7.95308 5.76151 -1.2402
thorax -0.279705 2.84436 -1.36612
lowerneck -19.065 1.25821 6.40912
upperneck 35.6022 -1.52007 2.66642
head 15.8728 0.640585 -0.258406
rclavicle 1.35174e-014 -3.57812e-015
rhumerus -19.3004 9.72711 -84.712
rradius 61.592
rwrist -10.4792
rhand -15.7647 -29.8959
rfingers 7.12502
rthumb 10.4272 -59.6174
lclavicle 1.35174e-014 -3.57812e-015
lhumerus -60.1877 26.4854 37.4619
lradius 12.4079
lwrist -70.1548
lhand 4.83701 -21.0293
lfingers 7.12502
lthumb 30.2145 6.51887
rfemur 16.156 4.60857 15.3861
rtibia 9.99074
rfoot -22.4158 -1.92905
rtoes -12.6633
lfemur -26.0067 7.87977 -5.9057
ltibia 27.3665
lfoot -6.43303 12.3589
ltoes -9.31932
